<?xml version="1.0" encoding="utf-8"?>
<!-- Generator: Adobe Illustrator 21.1.0, SVG Export Plug-In . SVG Version: 6.00 Build 0)  -->
<svg version="1.1" id="图层_1" xmlns="http://www.w3.org/2000/svg" xmlns:xlink="http://www.w3.org/1999/xlink" x="0px" y="0px"
	 viewBox="0 0 20 20" style="enable-background:new 0 0 20 20;" xml:space="preserve">
<style type="text/css">
	.st0{fill-rule:evenodd;clip-rule:evenodd;fill:#CCCCCC;}
</style>
<g>
	<g>
		<path class="st0" d="M10,2c-4.4,0-8,3.6-8,8c0,4.4,3.6,8,8,8c4.4,0,8-3.6,8-8C18,5.6,14.4,2,10,2z M13.8,11.5h-4
			c-0.4,0-0.8-0.3-0.8-0.7v-4C9,6.3,9.3,6,9.7,6c0.4,0,0.8,0.3,0.8,0.8V10h3.3c0.4,0,0.7,0.3,0.7,0.7C14.5,11.2,14.2,11.5,13.8,11.5
			z"/>
	</g>
</g>
</svg>
